<?xml version="1.0" standalone="no"?>
<!DOCTYPE svg PUBLIC "-//W3C//DTD SVG 20010904//EN"
 "http://www.w3.org/TR/2001/REC-SVG-20010904/DTD/svg10.dtd">
<svg version="1.0" xmlns="http://www.w3.org/2000/svg"
 width="990.000000pt" height="1280.000000pt" viewBox="0 0 990.000000 1280.000000"
 preserveAspectRatio="xMidYMid meet">
<metadata>
Created by potrace 1.15, written by Peter Selinger 2001-2017
</metadata>
<g transform="translate(0.000000,1280.000000) scale(0.100000,-0.100000)"
fill="#000000" stroke="none">
<path d="M5472 11112 c-681 -928 -1764 -2401 -2405 -3274 -641 -872 -1172
-1595 -1178 -1606 -11 -17 -8 -41 14 -139 15 -65 34 -122 42 -128 8 -5 45 -28
83 -49 68 -39 69 -40 80 -95 6 -31 14 -85 17 -121 77 -934 137 -1633 143
-1664 7 -37 13 -25 217 413 116 248 212 451 215 451 3 0 68 -226 144 -503 77
-276 142 -507 145 -514 3 -6 55 146 115 338 60 192 112 351 114 354 4 3 205
-98 259 -131 21 -14 -33 -78 -1659 -1961 -925 -1072 -1712 -1983 -1749 -2026
l-68 -78 102 -125 c56 -68 108 -124 116 -124 8 0 26 -10 40 -22 l26 -23 -22
25 -22 25 936 516 936 515 98 -30 c53 -17 96 -33 93 -37 -2 -3 7 -4 19 -2 12
2 107 -23 212 -56 157 -50 192 -58 205 -47 8 7 101 89 205 182 105 93 197 175
206 182 15 11 50 -28 290 -315 151 -180 275 -321 276 -313 1 8 7 188 13 400
14 504 30 895 39 927 6 21 52 51 266 168 179 99 262 140 267 132 10 -16 10
-157 0 -157 -5 0 -17 -7 -28 -15 -17 -14 -16 -14 13 -1 l32 16 5 -53 c3 -28 8
-99 11 -157 17 -333 105 -1843 107 -1845 2 -1 24 -5 50 -9 l46 -7 10 48 c6 26
99 493 208 1038 108 545 200 994 204 998 4 5 106 -109 226 -252 120 -143 220
-258 223 -255 2 2 23 258 47 568 23 310 45 569 48 575 4 5 9 52 11 103 3 51 9
94 13 96 4 1 178 97 386 212 209 115 381 208 383 206 2 -2 -1 -43 -8 -90 -11
-80 -14 -88 -41 -102 -15 -8 -28 -17 -28 -20 0 -2 14 2 30 11 28 15 30 14 30
-4 0 -11 -22 -202 -50 -425 -27 -223 -50 -407 -50 -410 0 -2 21 -11 47 -20 37
-13 49 -14 54 -4 25 43 702 1014 708 1016 5 2 136 -128 292 -287 155 -160 284
-290 285 -288 1 1 69 265 150 587 81 322 148 586 149 588 2 1 132 23 291 48
l289 44 29 -32 c259 -288 461 -499 463 -482 2 10 14 222 28 469 41 730 40 714
61 731 11 9 13 13 6 9 -10 -5 -12 12 -10 81 l3 88 308 169 307 169 -1 77 c0
42 -6 111 -12 155 l-12 79 -530 202 c-291 111 -964 367 -1495 570 -531 202
-969 370 -973 372 -5 3 13 28 40 57 l48 51 -51 -48 -50 -48 -83 32 -83 32 28
27 c311 298 2637 2538 2923 2814 l393 380 -7 116 c-4 63 -9 118 -12 123 -4 6
-560 506 -2408 2165 -278 250 -376 332 -395 332 -16 0 -34 -11 -50 -30 l-25
-30 -87 29 -86 29 -1240 -1686z m-1915 -6056 c8 -8 -3 -67 -48 -240 -32 -126
-60 -231 -63 -233 -2 -2 -68 30 -146 72 -77 43 -143 76 -144 74 -4 -5 -136
-414 -136 -422 0 -3 -5 -18 -11 -34 -10 -26 -15 -13 -59 147 -65 243 -62 231
-46 196 12 -26 14 -18 20 100 7 145 23 402 34 542 5 59 4 96 -3 104 -13 14
586 -290 602 -306z m270 -93 l83 -44 -23 -33 c-29 -43 -351 -415 -355 -411 -5
4 126 510 139 539 13 29 2 32 156 -51z m5075 -140 c-3 -67 -7 -90 -20 -100
-16 -12 -16 -13 1 -7 12 4 17 1 17 -13 0 -49 -51 -867 -54 -870 -4 -4 -42 36
-186 192 -41 44 -98 106 -127 137 l-53 56 -292 -43 c-161 -24 -308 -46 -327
-49 -19 -3 -30 -2 -25 3 5 4 189 108 409 231 220 123 405 227 410 233 6 5 -1
4 -15 -3 -23 -12 -24 -12 -12 3 8 9 17 49 21 91 l7 74 -31 -15 c-79 -40 5 14
135 86 80 44 145 80 145 81 0 0 -1 -39 -3 -87z m-1242 -1179 c-138 -544 -149
-586 -153 -590 -1 -2 -9 7 -16 19 -13 20 -13 21 2 8 15 -12 17 -11 18 10 5
112 8 176 18 319 6 91 15 242 21 335 5 94 13 183 16 199 5 22 3 27 -7 21 -10
-5 -11 -5 -4 2 15 15 208 123 212 119 2 -2 -46 -201 -107 -442z m-4014 -1901
c-3 -43 -8 -204 -12 -358 -4 -154 -9 -305 -13 -336 l-6 -55 -205 248 c-113
137 -211 256 -218 265 -15 20 -15 20 -104 -57 -35 -30 -57 -47 -49 -37 8 10
15 32 15 49 1 29 12 37 291 194 159 90 294 164 299 164 5 0 6 -35 2 -77z"/>
<path d="M3770 4955 c0 -2 18 -14 40 -25 22 -11 40 -18 40 -15 0 2 -18 14 -40
25 -22 11 -40 18 -40 15z"/>
<path d="M8828 4694 c-38 -20 -36 -28 2 -9 17 9 30 18 30 20 0 7 -1 6 -32 -11z"/>
<path d="M8718 4634 c-38 -20 -36 -28 2 -9 17 9 30 18 30 20 0 7 -1 6 -32 -11z"/>
<path d="M9837 10220 c39 -42 42 -50 46 -110 l3 -65 2 65 2 66 -47 44 -48 45
42 -45z"/>
<path d="M9820 9873 l-65 -68 68 65 c37 35 67 66 67 67 0 8 -10 -2 -70 -64z"/>
<path d="M9600 9663 l-115 -118 118 115 c109 107 122 120 114 120 -1 0 -54
-53 -117 -117z"/>
<path d="M9330 9403 l-105 -108 108 105 c99 97 112 110 104 110 -1 0 -50 -48
-107 -107z"/>
<path d="M9060 9143 l-115 -118 118 115 c109 107 122 120 114 120 -1 0 -54
-53 -117 -117z"/>
<path d="M8780 8873 l-115 -118 118 115 c109 107 122 120 114 120 -1 0 -54
-53 -117 -117z"/>
<path d="M8505 8608 l-110 -113 113 110 c61 60 112 111 112 112 0 8 -13 -5
-115 -109z"/>
<path d="M8230 8343 l-105 -108 108 105 c59 57 107 106 107 107 0 8 -13 -5
-110 -104z"/>
<path d="M7960 8083 l-115 -118 118 115 c109 107 122 120 114 120 -1 0 -54
-53 -117 -117z"/>
<path d="M7685 7818 l-110 -113 113 110 c104 102 117 115 109 115 -1 0 -52
-51 -112 -112z"/>
<path d="M7415 7560 c-66 -66 -117 -120 -115 -120 3 0 59 54 125 120 66 66
117 120 115 120 -3 0 -59 -54 -125 -120z"/>
<path d="M7140 7293 l-115 -118 118 115 c109 107 122 120 114 120 -1 0 -54
-53 -117 -117z"/>
<path d="M6860 7023 l-115 -118 118 115 c109 107 122 120 114 120 -1 0 -54
-53 -117 -117z"/>
<path d="M2061 5864 c0 -11 3 -14 6 -6 3 7 2 16 -1 19 -3 4 -6 -2 -5 -13z"/>
<path d="M9712 5498 c9 -7 18 -20 21 -28 4 -10 6 -8 6 6 1 12 -6 25 -15 28
-25 9 -29 7 -12 -6z"/>
<path d="M9743 5380 c0 -30 2 -43 4 -27 2 15 2 39 0 55 -2 15 -4 2 -4 -28z"/>
<path d="M9750 5233 c-3 -23 -2 -39 3 -34 5 5 7 24 5 42 -3 33 -4 33 -8 -8z"/>
<path d="M9698 5174 c-38 -20 -36 -28 2 -9 17 9 30 18 30 20 0 7 -1 6 -32 -11z"/>
<path d="M9598 5119 c-21 -11 -38 -22 -38 -24 0 -3 18 4 40 15 22 11 40 23 40
25 0 7 0 7 -42 -16z"/>
<path d="M9504 5064 c-18 -14 -18 -15 4 -4 12 6 22 13 22 15 0 8 -5 6 -26 -11z"/>
<path d="M9408 5014 c-38 -20 -36 -28 2 -9 17 9 30 18 30 20 0 7 -1 6 -32 -11z"/>
<path d="M9308 4959 c-21 -11 -38 -22 -38 -24 0 -3 18 4 40 15 22 11 40 23 40
25 0 7 0 7 -42 -16z"/>
<path d="M9208 4904 c-38 -20 -36 -28 2 -9 17 9 30 18 30 20 0 7 -1 6 -32 -11z"/>
<path d="M9118 4854 c-38 -20 -36 -28 2 -9 17 9 30 18 30 20 0 7 -1 6 -32 -11z"/>
<path d="M6164 3224 c-18 -14 -18 -15 4 -4 12 6 22 13 22 15 0 8 -5 6 -26 -11z"/>
<path d="M6068 3174 c-38 -20 -36 -28 2 -9 17 9 30 18 30 20 0 7 -1 6 -32 -11z"/>
<path d="M5958 3114 c-38 -20 -36 -28 2 -9 17 9 30 18 30 20 0 7 -1 6 -32 -11z"/>
<path d="M5868 3064 c-38 -20 -36 -28 2 -9 17 9 30 18 30 20 0 7 -1 6 -32 -11z"/>
<path d="M5778 3014 c-38 -20 -36 -28 2 -9 17 9 30 18 30 20 0 7 -1 6 -32 -11z"/>
<path d="M5668 2954 c-38 -20 -36 -28 2 -9 17 9 30 18 30 20 0 7 -1 6 -32 -11z"/>
<path d="M5578 2904 c-38 -20 -36 -28 2 -9 17 9 30 18 30 20 0 7 -1 6 -32 -11z"/>
<path d="M4204 2144 c-18 -14 -18 -15 4 -4 12 6 22 13 22 15 0 8 -5 6 -26 -11z"/>
<path d="M4108 2094 c-38 -20 -36 -28 2 -9 17 9 30 18 30 20 0 7 -1 6 -32 -11z"/>
<path d="M3998 2034 c-38 -20 -36 -28 2 -9 17 9 30 18 30 20 0 7 -1 6 -32 -11z"/>
<path d="M3908 1984 c-38 -20 -36 -28 2 -9 17 9 30 18 30 20 0 7 -1 6 -32 -11z"/>
<path d="M3818 1934 c-38 -20 -36 -28 2 -9 17 9 30 18 30 20 0 7 -1 6 -32 -11z"/>
<path d="M2238 1064 c-38 -20 -36 -28 2 -9 17 9 30 18 30 20 0 7 -1 6 -32 -11z"/>
<path d="M2148 1014 c-38 -20 -36 -28 2 -9 17 9 30 18 30 20 0 7 -1 6 -32 -11z"/>
<path d="M2038 954 c-38 -20 -36 -28 2 -9 17 9 30 18 30 20 0 7 -1 6 -32 -11z"/>
<path d="M1948 904 c-38 -20 -36 -28 2 -9 17 9 30 18 30 20 0 7 -1 6 -32 -11z"/>
<path d="M1858 854 c-38 -20 -36 -28 2 -9 17 9 30 18 30 20 0 7 -1 6 -32 -11z"/>
<path d="M1748 794 c-38 -20 -36 -28 2 -9 17 9 30 18 30 20 0 7 -1 6 -32 -11z"/>
<path d="M1638 734 c-38 -20 -36 -28 2 -9 17 9 30 18 30 20 0 7 -1 6 -32 -11z"/>
<path d="M1548 684 c-38 -20 -36 -28 2 -9 17 9 30 18 30 20 0 7 -1 6 -32 -11z"/>
<path d="M1458 634 c-38 -20 -36 -28 2 -9 17 9 30 18 30 20 0 7 -1 6 -32 -11z"/>
<path d="M1348 574 c-38 -20 -36 -28 2 -9 17 9 30 18 30 20 0 7 -1 6 -32 -11z"/>
<path d="M1258 524 c-38 -20 -36 -28 2 -9 17 9 30 18 30 20 0 7 -1 6 -32 -11z"/>
<path d="M1154 464 c-18 -14 -18 -15 4 -4 12 6 22 13 22 15 0 8 -5 6 -26 -11z"/>
<path d="M1058 414 c-38 -20 -36 -28 2 -9 17 9 30 18 30 20 0 7 -1 6 -32 -11z"/>
<path d="M958 359 c-21 -11 -38 -22 -38 -24 0 -3 18 4 40 15 22 11 40 23 40
25 0 7 0 7 -42 -16z"/>
<path d="M864 304 c-18 -14 -18 -15 4 -4 12 6 22 13 22 15 0 8 -5 6 -26 -11z"/>
<path d="M768 254 c-38 -20 -36 -28 2 -9 17 9 30 18 30 20 0 7 -1 6 -32 -11z"/>
<path d="M658 194 c-38 -20 -36 -28 2 -9 17 9 30 18 30 20 0 7 -1 6 -32 -11z"/>
<path d="M578 149 c-21 -11 -38 -22 -38 -24 0 -3 18 4 40 15 22 11 40 23 40
25 0 7 0 7 -42 -16z"/>
<path d="M478 94 c-38 -20 -36 -28 2 -9 17 9 30 18 30 20 0 7 -1 6 -32 -11z"/>
<path d="M295 60 c10 -11 20 -20 23 -20 3 0 -3 9 -13 20 -10 11 -20 20 -23 20
-3 0 3 -9 13 -20z"/>
<path d="M367 34 c-15 -8 -33 -12 -40 -8 -9 5 -9 4 -1 -5 9 -10 18 -9 43 3 17
9 31 19 31 21 0 7 -1 6 -33 -11z"/>
</g>
</svg>
